<svg xmlns="http://www.w3.org/2000/svg" width="192" height="192" viewBox="0 0 192 192"><path fill="#000" d="M59 145.8h74c11.4 0 17-5.7 17-16.8V62.8c0-11.2-5.6-16.8-17-16.8H59c-11.3 0-17 5.6-17 16.8V129c0 11.2 5.7 16.8 17 16.8zm-.8-8.8c-4.8 0-7.5-2.5-7.5-7.5V78.4c0-5 2.7-7.6 7.5-7.6h75.5c4.9 0 7.6 2.6 7.6 7.6v51c0 5-2.7 7.6-7.6 7.6H58.2zm27.2-46.8h3.2c1.9 0 2.6-.5 2.6-2.4v-3.2c0-2-.7-2.5-2.6-2.5h-3.2c-1.9 0-2.5.6-2.5 2.5v3.2c0 1.9.6 2.4 2.5 2.4zm18 0h3.2c1.9 0 2.5-.5 2.5-2.4v-3.2c0-2-.6-2.5-2.5-2.5h-3.1c-2 0-2.6.6-2.6 2.5v3.2c0 1.9.6 2.4 2.6 2.4zm18 0h3.2c2 0 2.5-.5 2.5-2.4v-3.2c0-2-.6-2.5-2.5-2.5h-3.2c-1.9 0-2.5.6-2.5 2.5v3.2c0 1.9.6 2.4 2.5 2.4zm-54 17.7h3.2c2 0 2.5-.5 2.5-2.4v-3.2c0-1.9-.6-2.4-2.5-2.4h-3.2c-1.9 0-2.5.5-2.5 2.4v3.2c0 1.9.6 2.4 2.5 2.4zm18 0h3.2c1.9 0 2.6-.5 2.6-2.4v-3.2c0-1.9-.7-2.4-2.6-2.4h-3.2c-1.9 0-2.5.5-2.5 2.4v3.2c0 1.9.6 2.4 2.5 2.4zm18 0h3.2c1.9 0 2.5-.5 2.5-2.4v-3.2c0-1.9-.6-2.4-2.5-2.4h-3.1c-2 0-2.6.5-2.6 2.4v3.2c0 1.9.6 2.4 2.6 2.4zm18 0h3.2c2 0 2.5-.5 2.5-2.4v-3.2c0-1.9-.6-2.4-2.5-2.4h-3.2c-1.9 0-2.5.5-2.5 2.4v3.2c0 1.9.6 2.4 2.5 2.4zm-54 17.8h3.2c2 0 2.5-.6 2.5-2.5V120c0-1.9-.6-2.4-2.5-2.4h-3.2c-1.9 0-2.5.5-2.5 2.4v3.2c0 2 .6 2.5 2.5 2.5zm18 0h3.2c1.9 0 2.6-.6 2.6-2.5V120c0-1.9-.7-2.4-2.6-2.4h-3.2c-1.9 0-2.5.5-2.5 2.4v3.2c0 2 .6 2.5 2.5 2.5zm18 0h3.2c1.9 0 2.5-.6 2.5-2.5V120c0-1.9-.6-2.4-2.5-2.4h-3.1c-2 0-2.6.5-2.6 2.4v3.2c0 2 .6 2.5 2.6 2.5z"/></svg>
