<svg width="24" height="24" viewBox="0 0 24 24" fill="none" xmlns="http://www.w3.org/2000/svg">
<path d="M16.0645 8.63782C16.2715 8.27911 16.1484 7.82043 15.79 7.61334C15.4312 7.40619 14.9727 7.52911 14.7651 7.88782L10.7285 14.8795L8.96631 12.3623C8.729 12.023 8.26123 11.9406 7.92188 12.1781C7.58252 12.4156 7.5 12.8833 7.73779 13.2226L9.9502 16.3826C10.3701 16.9817 11.27 16.9424 11.6357 16.3089L16.0645 8.63782Z" fill="black"/>
<path fill-rule="evenodd" clip-rule="evenodd" d="M3 12C3 7.02942 7.0293 3 12 3C16.9707 3 21 7.02942 21 12C21 16.9706 16.9707 21 12 21C7.0293 21 3 16.9706 3 12ZM12 19.5C7.85791 19.5 4.5 16.1422 4.5 12C4.5 7.85785 7.85791 4.5 12 4.5C16.1421 4.5 19.5 7.85785 19.5 12C19.5 16.1422 16.1421 19.5 12 19.5Z" fill="black"/>
</svg>
