<svg xmlns="http://www.w3.org/2000/svg" width="24" height="24" fill="none" viewBox="0 0 24 24"><path fill="#000" fill-rule="evenodd" d="M9 12a3 3 0 116 0 3 3 0 01-6 0zm3 1.5a1.5 1.5 0 110-3 1.5 1.5 0 010 3z" clip-rule="evenodd"/><path fill="#000" fill-rule="evenodd" d="M13.15 3a1 1 0 01.99.84l.31 1.87.26.1 1.55-1.1a1 1 0 011.29.11l1.63 1.63a1 1 0 01.1 1.29l-1.1 1.55.05.11.06.15 1.87.31a1 1 0 01.84.99v2.3a1 1 0 01-.84.99l-1.87.31-.1.26 1.1 1.55a1 1 0 01-.11 1.29l-1.63 1.63a1 1 0 01-1.29.1l-1.55-1.1-.15.07-.1.04-.32 1.87a1 1 0 01-.99.84h-2.3a1 1 0 01-.99-.84l-.31-1.87a7.1 7.1 0 01-.26-.1l-1.55 1.1a1 1 0 01-1.29-.11l-1.63-1.63a1 1 0 01-.1-1.29l1.1-1.55a6.3 6.3 0 01-.11-.26l-1.87-.31a1 1 0 01-.84-.99v-2.3a1 1 0 01.84-.99l1.87-.31.1-.26-1.1-1.55a1 1 0 01.11-1.29l1.63-1.63a1 1 0 011.29-.1l1.55 1.1.26-.11.31-1.87a1 1 0 01.99-.84h2.3zm-1.88 1.5h1.46l.4 2.37.11.03c.37.09.73.21 1.07.38l.11.06c.14.07.28.15.41.24l1.96-1.4 1.03 1.03-1.4 1.96c.32.49.55 1.03.68 1.6l.03.1 2.37.4v1.46l-2.37.4c-.13.6-.37 1.18-.7 1.7l1.39 1.96-1.03 1.03-1.96-1.4a5.1 5.1 0 01-1.7.7l-.4 2.38h-1.46l-.4-2.37a5.22 5.22 0 01-1.7-.7L7.2 17.81l-1.03-1.03 1.4-1.96a5.23 5.23 0 01-.68-1.59l-.03-.12-2.37-.4v-1.45l2.37-.4c.14-.61.38-1.19.7-1.7L6.19 7.2l1.03-1.03 1.96 1.4a5.1 5.1 0 011.7-.7l.4-2.38-.01.01z" clip-rule="evenodd"/></svg>
