<svg xmlns="http://www.w3.org/2000/svg" width="24" height="24" fill="none" viewBox="0 0 24 24"><path fill="#000" d="M10.05 13.05a1.5 1.5 0 113 0 1.5 1.5 0 01-3 0z"/><path fill="#000" fill-rule="evenodd" d="M1.96 7.58a2 2 0 011.02-.66l10.63-2.85a2 2 0 012.45 1.41l.82 3.07h3.17a2 2 0 012 2v8a2 2 0 01-2 2h-11a2 2 0 01-2-2v-.3l-.96.26a2 2 0 01-2.45-1.42L1.57 9.37a2 2 0 01.39-1.8zm5.1 9.12v-6.15c0-1.1.89-2 2-2h6.27l-.72-2.68a.5.5 0 00-.61-.35L3.37 8.36a.5.5 0 00-.35.62l2.07 7.72a.5.5 0 00.61.36l1.35-.36zm2-6.65h11c.27 0 .5.22.5.5v6.38l-2.33-2.32a1.5 1.5 0 00-2.12 0l-2.94 2.94-.94-.94a1.5 1.5 0 00-2.12 0l-1.56 1.56v-7.62c0-.28.22-.5.5-.5z" clip-rule="evenodd"/></svg>
