<svg width="24" height="24" viewBox="0 0 24 24" fill="none" xmlns="http://www.w3.org/2000/svg">
<path d="M12 7C9.23858 7 7 9.23858 7 12C7 14.7614 9.23858 17 12 17C14.7614 17 17 14.7614 17 12C17 9.23858 14.7614 7 12 7Z" fill="black"/>
<path fill-rule="evenodd" clip-rule="evenodd" d="M3 12C3 7.02942 7.0293 3 12 3C16.9707 3 21 7.02942 21 12C21 16.9706 16.9707 21 12 21C7.0293 21 3 16.9706 3 12ZM12 19.5C7.85791 19.5 4.5 16.1422 4.5 12C4.5 7.85785 7.85791 4.5 12 4.5C16.1421 4.5 19.5 7.85785 19.5 12C19.5 16.1422 16.1421 19.5 12 19.5Z" fill="black"/>
</svg>
