<svg xmlns="http://www.w3.org/2000/svg" width="24" height="24" fill="none" viewBox="0 0 24 24"><path fill="#000" d="M11.25 3.75a.75.75 0 011.5 0v1.5A.75.75 0 0112 6a.75.75 0 01-.75-.75v-1.5zM11.25 18.75a.75.75 0 011.5 0v1.5a.75.75 0 01-1.5 0v-1.5zM21 12a.75.75 0 00-.75-.75h-1.5a.75.75 0 000 1.5h1.5A.75.75 0 0021 12zM5.25 11.25a.75.75 0 010 1.5h-1.5a.75.75 0 010-1.5h1.5zM5.64 5.64c-.3.29-.3.76 0 1.06L6.7 7.76a.75.75 0 001.06 0c.29-.3.29-.77 0-1.06L6.7 5.64a.75.75 0 00-1.06 0zM16.24 17.3a.75.75 0 111.06-1.06l1.06 1.06a.75.75 0 01-1.06 1.06l-1.06-1.06zM18.36 5.64a.75.75 0 00-1.06 0L16.24 6.7a.75.75 0 001.06 1.06l1.06-1.06c.3-.3.3-.77 0-1.06zM6.7 16.24a.75.75 0 111.06 1.06L6.7 18.36a.75.75 0 01-1.06-1.06l1.06-1.06z"/><path fill="#000" fill-rule="evenodd" d="M7.5 12a4.5 4.5 0 119 0 4.5 4.5 0 01-9 0zm4.5 3a3 3 0 110-6 3 3 0 010 6z" clip-rule="evenodd"/></svg>
