<svg xmlns="http://www.w3.org/2000/svg" width="192" height="192" viewBox="0 0 192 192"><path fill="#000" fill-rule="evenodd" d="M129.4 147H62.6c-11.7 0-17.6-5.9-17.6-17.4V62.4C45 50.8 51 45 62.6 45h66.8c11.7 0 17.6 5.9 17.6 17.4v67.2c0 11.5-6 17.4-17.6 17.4zm-63.9-44.1c0 2 1.5 3.5 3.5 3.5h54c2 0 3.5-1.5 3.5-3.5s-1.5-3.4-3.5-3.4H69c-2 0-3.5 1.5-3.5 3.4zm0 18.8c0 1.9 1.5 3.3 3.5 3.3h39.7c2 0 3.5-1.4 3.5-3.3 0-2-1.5-3.5-3.5-3.5H69c-2 0-3.5 1.5-3.5 3.5zm12-31.7a12.5 12.5 0 100-25 12.5 12.5 0 000 25z" clip-rule="evenodd"/></svg>
