<svg xmlns="http://www.w3.org/2000/svg" width="24" height="24" fill="none" viewBox="0 0 24 24"><path fill="#000" fill-rule="evenodd" d="M9.5 8a1 1 0 011-1h3a1 1 0 011 1v1h2a.5.5 0 110 1h-1.06l-.38 6.06a1 1 0 01-1 .94H9.94a1 1 0 01-1-.94L8.56 10H7.5a.5.5 0 110-1h2V8zm4 .25V9h-3v-.75c0-.14.11-.25.25-.25h2.5c.14 0 .25.11.25.25zm-1.75 2c0-.14.11-.25.25-.25h.04a.26.26 0 01.11.05.24.24 0 01.07.08l.02.05v.03l.01.04v5.5a.25.25 0 11-.5 0v-5.5zm1.64 0a.25.25 0 01.5.02l-.28 5.49c-.01.14-.13.24-.27.24h-.03l-.03-.02a.25.25 0 01-.16-.15.26.26 0 01-.01-.1l.28-5.49zm-3.28.02a.25.25 0 01.5-.03l.28 5.5a.25.25 0 01-.5.02l-.28-5.5z" clip-rule="evenodd"/><path fill="#000" fill-rule="evenodd" d="M12 3a9 9 0 100 18 9 9 0 000-18zm-7.5 9a7.5 7.5 0 1015 0 7.5 7.5 0 00-15 0z" clip-rule="evenodd"/></svg>
