<svg xmlns="http://www.w3.org/2000/svg" width="192" height="192" viewBox="0 0 192 192"><path fill="#000" d="M52 136.9h88c10.7 0 16-5.3 16-15.8V93c0-4.6-.7-6.7-2.9-9.7l-17.6-23.7C130 52 127 50 118 50H74c-9 0-12 2-17.6 9.6L39 83.3a14 14 0 00-3 9.7v28c0 10.6 5.3 15.9 16 15.9zm44-29.5c-7.6 0-12.5-6.6-12.5-12.9v-.1c0-2.3-1.4-4.5-4.2-4.5H46.8c-1.6 0-2-1.4-1.2-2.5l18.8-25.8c2.4-3.3 5.4-4.5 9.1-4.5h45c3.7 0 6.7 1.2 9 4.5l18.9 25.8c.7 1.1.4 2.5-1.2 2.5h-32.5c-2.8 0-4.1 2.2-4.1 4.5v.1c0 6.3-5 13-12.6 13z"/></svg>
