<svg width="24" height="24" viewBox="0 0 24 24" fill="none" xmlns="http://www.w3.org/2000/svg">
<path d="M14.4749 8.46449C14.7677 8.17162 15.2427 8.1717 15.5355 8.46449C15.8283 8.75728 15.8284 9.23228 15.5355 9.52515L13.0607 12L15.5355 14.4749C15.8283 14.7677 15.8284 15.2427 15.5355 15.5356C15.2427 15.8284 14.7677 15.8283 14.4749 15.5356L12 13.0607L9.52513 15.5356C9.23225 15.8284 8.75725 15.8283 8.46447 15.5356C8.17168 15.2428 8.17159 14.7678 8.46447 14.4749L10.9393 12L8.46447 9.52515C8.17168 9.23236 8.17159 8.75736 8.46447 8.46449C8.75734 8.17162 9.23234 8.1717 9.52513 8.46449L12 10.9394L14.4749 8.46449Z" fill="black"/>
<path fill-rule="evenodd" clip-rule="evenodd" d="M12 3C7.0293 3 3 7.02942 3 12C3 16.9706 7.0293 21 12 21C16.9707 21 21 16.9706 21 12C21 7.02942 16.9707 3 12 3ZM4.5 12C4.5 16.1422 7.85791 19.5 12 19.5C16.1421 19.5 19.5 16.1422 19.5 12C19.5 7.85785 16.1421 4.5 12 4.5C7.85791 4.5 4.5 7.85785 4.5 12Z" fill="black"/>
</svg>
